<?xml version="1.0" encoding="utf-8"?>
<svg version="1.1" xmlns:xlink="http://www.w3.org/1999/xlink" width="180px" height="30px" xmlns="http://www.w3.org/2000/svg">
  <g transform="matrix(1 0 0 1 -963 -4207 )">
    <path d="M 964 4222  A 14 14 0 0 1 978 4208 L 1128 4208  A 14 14 0 0 1 1142 4222 A 14 14 0 0 1 1128 4236 L 978 4236  A 14 14 0 0 1 964 4222 Z " fill-rule="nonzero" fill="#ff6200" stroke="none" fill-opacity="0.0980392156862745" />
    <path d="M 963.5 4222  A 14.5 14.5 0 0 1 978 4207.5 L 1128 4207.5  A 14.5 14.5 0 0 1 1142.5 4222 A 14.5 14.5 0 0 1 1128 4236.5 L 978 4236.5  A 14.5 14.5 0 0 1 963.5 4222 Z " stroke-width="1" stroke="#ff6200" fill="none" stroke-opacity="0.2" />
  </g>
</svg>