<?xml version="1.0" encoding="utf-8"?>
<svg version="1.1" xmlns:xlink="http://www.w3.org/1999/xlink" width="251px" height="117px" xmlns="http://www.w3.org/2000/svg">
  <g transform="matrix(1 0 0 1 -53 -107 )">
    <path d="M 178.5 107.5  C 248.5 107.5  303.5 133.02  303.5 165.5  C 303.5 197.98  248.5 223.5  178.5 223.5  C 108.5 223.5  53.5 197.98  53.5 165.5  C 53.5 133.02  108.5 107.5  178.5 107.5  Z " fill-rule="nonzero" fill="#ffffff" stroke="none" fill-opacity="0" />
    <path d="M 178.5 107.5  C 248.5 107.5  303.5 133.02  303.5 165.5  C 303.5 197.98  248.5 223.5  178.5 223.5  C 108.5 223.5  53.5 197.98  53.5 165.5  C 53.5 133.02  108.5 107.5  178.5 107.5  Z " stroke-width="1" stroke="#000000" fill="none" stroke-opacity="0.0980392156862745" />
  </g>
</svg>