<?xml version="1.0" encoding="utf-8"?>
<svg version="1.1" xmlns:xlink="http://www.w3.org/1999/xlink" width="580px" height="580px" xmlns="http://www.w3.org/2000/svg">
  <defs>
    <mask fill="white" id="clip33">
      <path d="M 10.5 589.5  L 10.5 19.5  C 10.5 14.505  14.505 10.5  19.5 10.5  L 580.5 10.5  C 585.495 10.5  589.5 14.505  589.5 19.5  L 589.5 589.5  L 10.5 589.5  " fill-rule="evenodd" />
    </mask>
  </defs>
  <g transform="matrix(1 0 0 1 -10 -10 )">
    <path d="M 10 10  L 590 10  L 590 590  L 10 590  L 10 10  " fill-rule="nonzero" fill="#cccccc" stroke="none" mask="url(#clip33)" />
    <path d="M 51 51  L 549 51  L 549 549  L 51 549  L 51 51  " fill-rule="nonzero" fill="#ffffff" stroke="none" mask="url(#clip33)" />
    <path d="M 355.1 184  C 330.74 184  311.6 164.86  311.6 140.5  C 311.6 116.14  330.74 97  355.1 97  C 379.46 97  398.6 116.14  398.6 140.5  C 398.6 164.86  379.46 184  355.1 184  " fill-rule="nonzero" fill="#cccccc" stroke="none" mask="url(#clip33)" />
    <path d="M 66 535  L 66 277.05  L 183.25 159.8  L 347.4 253.6  L 441.2 230.15  L 535 253.6  L 535 535  L 66 535  " fill-rule="nonzero" fill="#169bd5" stroke="none" mask="url(#clip33)" />
    <path d="M 11 589  L 11 18  C 11 14.115  14.115 11  18 11  L 582 11  C 585.885 11  589 14.115  589 18  L 589 589  L 11 589  Z " stroke-width="2" stroke="#f1f4f9" fill="none" mask="url(#clip33)" />
  </g>
</svg>