<?xml version="1.0" encoding="utf-8"?>
<svg version="1.1" xmlns:xlink="http://www.w3.org/1999/xlink" width="160px" height="25px" xmlns="http://www.w3.org/2000/svg">
  <g transform="matrix(1 0 0 1 -1162 -339 )">
    <path d="M 1163 351.5  A 11.5 11.5 0 0 1 1174.5 340 L 1309.5 340  A 11.5 11.5 0 0 1 1321 351.5 A 11.5 11.5 0 0 1 1309.5 363 L 1174.5 363  A 11.5 11.5 0 0 1 1163 351.5 Z " fill-rule="nonzero" fill="#ff6200" stroke="none" fill-opacity="0.0980392156862745" />
    <path d="M 1162.5 351.5  A 12 12 0 0 1 1174.5 339.5 L 1309.5 339.5  A 12 12 0 0 1 1321.5 351.5 A 12 12 0 0 1 1309.5 363.5 L 1174.5 363.5  A 12 12 0 0 1 1162.5 351.5 Z " stroke-width="1" stroke="#ff6200" fill="none" stroke-opacity="0.2" />
  </g>
</svg>