<?xml version="1.0" encoding="utf-8"?>
<svg version="1.1" xmlns:xlink="http://www.w3.org/1999/xlink" width="8px" height="8px" xmlns="http://www.w3.org/2000/svg">
  <defs>
    <mask fill="white" id="clip34">
      <path d="M 7.99999964365087 0.0242122200972719  C 3.68845886817169 0.339024764339936  0.339022479877018 3.68846245442961  0.0241591587415036 8  L 0 8  L 0 0  L 8 0  L 7.99999964365087 0.0242122200972719  Z " fill-rule="evenodd" />
    </mask>
  </defs>
  <g transform="matrix(1 0 0 1 -1362 -491 )">
    <path d="M 7.99999964365087 0.0242122200972719  C 3.68845886817169 0.339024764339936  0.339022479877018 3.68846245442961  0.0241591587415036 8  L 0 8  L 0 0  L 8 0  L 7.99999964365087 0.0242122200972719  Z " fill-rule="nonzero" fill="#eafcff" stroke="none" transform="matrix(1 0 0 1 1362 491 )" />
    <path d="M 7.99999964365087 0.0242122200972719  C 3.68845886817169 0.339024764339936  0.339022479877018 3.68846245442961  0.0241591587415036 8  L 0 8  L 0 0  L 8 0  L 7.99999964365087 0.0242122200972719  Z " stroke-width="2" stroke="#000000" fill="none" transform="matrix(1 0 0 1 1362 491 )" mask="url(#clip34)" />
  </g>
</svg>