<?xml version="1.0" encoding="utf-8"?>
<svg version="1.1" xmlns:xlink="http://www.w3.org/1999/xlink" width="90px" height="28px" xmlns="http://www.w3.org/2000/svg">
  <g transform="matrix(1 0 0 1 -1290 -236 )">
    <path d="M 1291 250  A 13 13 0 0 1 1304 237 L 1366 237  A 13 13 0 0 1 1379 250 A 13 13 0 0 1 1366 263 L 1304 263  A 13 13 0 0 1 1291 250 Z " fill-rule="nonzero" fill="#0ec32b" stroke="none" fill-opacity="0.0980392156862745" />
    <path d="M 1290.5 250  A 13.5 13.5 0 0 1 1304 236.5 L 1366 236.5  A 13.5 13.5 0 0 1 1379.5 250 A 13.5 13.5 0 0 1 1366 263.5 L 1304 263.5  A 13.5 13.5 0 0 1 1290.5 250 Z " stroke-width="1" stroke="#0ec32b" fill="none" stroke-opacity="0.2" />
  </g>
</svg>