<?xml version="1.0" encoding="utf-8"?>
<svg version="1.1" xmlns:xlink="http://www.w3.org/1999/xlink" width="14px" height="13px" xmlns="http://www.w3.org/2000/svg">
  <g transform="matrix(1 0 0 1 -12 -33 )">
    <path d="M 13 1.08192457737321  L 13 4.32769830949285  C 13.2760416666667 4.32769830949285  13.51171875 4.43335500650195  13.70703125 4.64466840052016  C 13.90234375 4.85598179453836  14 5.11096662332033  14 5.40962288686606  C 14 5.70827915041179  13.90234375 5.96326397919376  13.70703125 6.17457737321196  C 13.51171875 6.38589076723017  13.2760416666667 6.49154746423927  13 6.49154746423927  L 13 9.73732119635891  C 13 10.0303424360642  12.9010416666667 10.283918508886  12.703125 10.4980494148244  C 12.5052083333333 10.7121803207629  12.2708333333333 10.8192457737321  12 10.8192457737321  C 9.828125 8.86389250108366  7.71354166666667 7.79323797139142  5.65625 7.6072821846554  C 5.35416666666667 7.71434763762462  5.1171875 7.90030342436064  4.9453125 8.16514954486346  C 4.7734375 8.42999566536628  4.69270833333333 8.71315561335067  4.703125 9.01462938881665  C 4.71354166666667 9.31610316428262  4.81770833333333 9.57672301690507  5.015625 9.79648894668401  C 4.91145833333333 9.98244473342003  4.8515625 10.1669917641959  4.8359375 10.3501300390117  C 4.8203125 10.5332683138275  4.8359375 10.6966840052016  4.8828125 10.8403771131339  C 4.9296875 10.9840702210663  5.01692708333333 11.1390333766797  5.14453125 11.305266579974  C 5.27213541666667 11.4714997832683  5.39713541666667 11.6123753792804  5.51953125 11.7278933680104  C 5.64192708333333 11.8434113567404  5.80208333333333 11.9856957087126  6 12.1547464239272  C 5.84895833333333 12.4815778066753  5.55859375 12.7154312960555  5.12890625 12.8563068920676  C 4.69921875 12.9971824880798  4.26041666666667 13.0295838751625  3.8125 12.953511053316  C 3.36458333333333 12.8774382314694  3.02083333333333 12.721066319896  2.78125 12.4843953185956  C 2.74479166666667 12.3547897702644  2.66796875 12.1082574772432  2.55078125 11.7447984395319  C 2.43359375 11.3813394018205  2.35026041666667 11.1150845253576  2.30078125 10.946033810143  C 2.25130208333333 10.7769830949285  2.19140625 10.5262245340269  2.12109375 10.1937581274382  C 2.05078125 9.86129172084959  2.01171875 9.57672301690507  2.00390625 9.34005201560468  C 1.99609375 9.10338101430429  2.00520833333333 8.82585609016038  2.03125 8.50747724317295  C 2.05729166666667 8.18909839618552  2.11458333333333 7.8777633289987  2.203125 7.57347204161248  L 1.25 7.57347204161248  C 0.90625 7.57347204161248  0.611979166666667 7.44104898136107  0.3671875 7.17620286085826  C 0.122395833333333 6.91135674035544  0 6.59297789336801  0 6.22106631989597  L 0 4.59817945383615  C 0 4.22626788036411  0.122395833333333 3.90788903337668  0.3671875 3.64304291287386  C 0.611979166666667 3.37819679237104  0.90625 3.24577373211964  1.25 3.24577373211964  L 5 3.24577373211964  C 7.265625 3.24577373211964  9.59895833333333 2.16384915474642  12 0  C 12.2708333333333 0  12.5052083333333 0.107065452969223  12.703125 0.321196358907673  C 12.9010416666667 0.53532726484612  13 0.788903337667966  13 1.08192457737321  Z M 6 6.55071521456437  C 7.96354166666667 6.78738621586476  9.96354166666667 7.74815778066753  12 9.43302990897269  L 12 1.36931079323797  C 9.94791666666667 3.07108799306459  7.94791666666667 4.03749458170785  6 4.26853055916775  L 6 6.55071521456437  Z " fill-rule="nonzero" fill="#000000" stroke="none" fill-opacity="0.6" transform="matrix(1 0 0 1 12 33 )" />
  </g>
</svg>