<?xml version="1.0" encoding="utf-8"?>
<svg version="1.1" xmlns:xlink="http://www.w3.org/1999/xlink" width="50px" height="50px" xmlns="http://www.w3.org/2000/svg">
  <defs>
    <filter x="1340px" y="47px" width="50px" height="50px" filterUnits="userSpaceOnUse" id="filter26">
      <feOffset dx="0" dy="0" in="SourceAlpha" result="shadowOffsetInner" />
      <feGaussianBlur stdDeviation="5" in="shadowOffsetInner" result="shadowGaussian" />
      <feComposite in2="shadowGaussian" operator="atop" in="SourceAlpha" result="shadowComposite" />
      <feColorMatrix type="matrix" values="0 0 0 0 0  0 0 0 0 0  0 0 0 0 0  0 0 0 0.0980392156862745 0  " in="shadowComposite" />
    </filter>
    <g id="widget27">
      <path d="M 1365 57.5  C 1373.12 57.5  1379.5 63.88  1379.5 72  C 1379.5 80.12  1373.12 86.5  1365 86.5  C 1356.88 86.5  1350.5 80.12  1350.5 72  C 1350.5 63.88  1356.88 57.5  1365 57.5  Z " fill-rule="nonzero" fill="#ffffff" stroke="none" />
      <path d="M 1365 57.5  C 1373.12 57.5  1379.5 63.88  1379.5 72  C 1379.5 80.12  1373.12 86.5  1365 86.5  C 1356.88 86.5  1350.5 80.12  1350.5 72  C 1350.5 63.88  1356.88 57.5  1365 57.5  Z " stroke-width="1" stroke="#000000" fill="none" stroke-opacity="0.4" />
    </g>
  </defs>
  <g transform="matrix(1 0 0 1 -1340 -47 )">
    <use xlink:href="#widget27" filter="url(#filter26)" />
    <use xlink:href="#widget27" />
  </g>
</svg>