<?xml version="1.0" encoding="utf-8"?>
<svg version="1.1" xmlns:xlink="http://www.w3.org/1999/xlink" width="178px" height="110px" xmlns="http://www.w3.org/2000/svg">
  <g>
    <path d="M 0 0  L 178 0  L 178 110  L 0 110  L 0 0  " fill-rule="nonzero" fill="#cccccc" stroke="none" />
    <path d="M 8 8  L 170 8  L 170 102  L 8 102  L 8 8  " fill-rule="nonzero" fill="#ffffff" stroke="none" />
    <path d="M 100.81 33  C 96.19 33  92.56 29.37  92.56 24.75  C 92.56 20.13  96.19 16.5  100.81 16.5  C 105.43 16.5  109.06 20.13  109.06 24.75  C 109.06 29.37  105.43 33  100.81 33  " fill-rule="nonzero" fill="#cccccc" stroke="none" />
    <path d="M 11 99  L 11 50.6  L 50 28.6  L 104.6 66.3707865168539  L 135.8 41.8  L 167 66.3707865168539  L 167 99  L 11 99  " fill-rule="nonzero" fill="#169bd5" stroke="none" />
  </g>
</svg>