<?xml version="1.0" encoding="utf-8"?>
<svg version="1.1" xmlns:xlink="http://www.w3.org/1999/xlink" width="12px" height="12px" xmlns="http://www.w3.org/2000/svg">
  <g transform="matrix(1 0 0 1 -29 -1 )">
    <path d="M 35 1  C 38.36 1  41 3.64  41 7  C 41 10.36  38.36 13  35 13  C 31.64 13  29 10.36  29 7  C 29 3.64  31.64 1  35 1  Z " fill-rule="nonzero" fill="#ffffff" stroke="none" fill-opacity="0" />
    <path d="M 35 1.5  C 38.08 1.5  40.5 3.92  40.5 7  C 40.5 10.08  38.08 12.5  35 12.5  C 31.92 12.5  29.5 10.08  29.5 7  C 29.5 3.92  31.92 1.5  35 1.5  Z " stroke-width="1" stroke="#ffffff" fill="none" />
  </g>
</svg>